<?xml version="1.0" encoding="UTF-8" standalone="no"?>
<!-- Created with Inkscape (http://www.inkscape.org/) -->

<svg
   xmlns:dc="http://purl.org/dc/elements/1.1/"
   xmlns:cc="http://creativecommons.org/ns#"
   xmlns:rdf="http://www.w3.org/1999/02/22-rdf-syntax-ns#"
   xmlns:svg="http://www.w3.org/2000/svg"
   xmlns="http://www.w3.org/2000/svg"
   xmlns:sodipodi="http://sodipodi.sourceforge.net/DTD/sodipodi-0.dtd"
   xmlns:inkscape="http://www.inkscape.org/namespaces/inkscape"
   width="1000"
   height="1000"
   id="svg2"
   version="1.1"
   inkscape:version="0.48.4 r9939"
   sodipodi:docname="AlmondCoffeeMKI.png">
  <title
     id="title3831">AlmondCoffee</title>
  <defs
     id="defs4" />
  <sodipodi:namedview
     id="base"
     pagecolor="#ffffff"
     bordercolor="#666666"
     borderopacity="1.0"
     inkscape:pageopacity="0.0"
     inkscape:pageshadow="2"
     inkscape:zoom="0.35"
     inkscape:cx="-70.714286"
     inkscape:cy="862.85714"
     inkscape:document-units="px"
     inkscape:current-layer="layer1"
     showgrid="false"
     inkscape:window-width="1600"
     inkscape:window-height="832"
     inkscape:window-x="-8"
     inkscape:window-y="-8"
     inkscape:window-maximized="1" />
  <metadata
     id="metadata7">
    <rdf:RDF>
      <cc:Work
         rdf:about="">
        <dc:format>image/svg+xml</dc:format>
        <dc:type
           rdf:resource="http://purl.org/dc/dcmitype/StillImage" />
        <dc:title>AlmondCoffee</dc:title>
      </cc:Work>
    </rdf:RDF>
  </metadata>
  <g
     inkscape:label="Layer 1"
     inkscape:groupmode="layer"
     id="layer1"
     transform="translate(0,-52.362183)">
    <path
       style="fill:#000000;fill-opacity:1;fill-rule:nonzero;stroke:none"
       id="path2991"
       d="m 864.58202,222.96732 c -0.70967,21.60419 -0.66335,43.2273 -0.72918,64.84145 0.286,25.95828 0.35984,51.83793 -2.25819,77.67365 -3.09179,25.01709 -9.66487,49.39721 -16.08771,73.66838 -5.03399,19.35239 -11.02386,38.36172 -18.50835,56.83493 -5.79455,14.02662 -12.02727,27.85227 -18.89533,41.34634 -5.20894,10.31422 -11.46996,19.94457 -18.05239,29.34888 -6.82915,9.80042 -13.95497,19.37721 -21.0984,28.9324 -5.71291,7.67465 -11.9068,14.91049 -18.80405,21.45015 -6.79922,6.30286 -14.14933,11.91017 -21.13432,17.98499 -6.48211,6.12915 -13.2454,11.9157 -19.9199,17.81417 -6.47672,6.04156 -12.94553,12.0712 -19.61167,17.88827 -19.92196,16.38954 -43.16847,28.5073 -64.98,41.59505 -11.10245,6.34358 -21.95148,13.13641 -33.33723,18.92927 -12.97315,6.99781 -38.77675,22.03649 18.68271,-11.58998 1.79503,-1.05048 -3.50696,2.24738 -5.24707,3.39315 -4.47598,2.94718 -5.46177,3.67241 -9.79706,6.68763 -8.82764,6.5823 -17.57311,13.24446 -26.8338,19.15979 -25.70643,18.82496 -52.2549,31.11606 -81.4741,41.23358 -18.40257,6.0042 -36.3374,13.38523 -54.53547,20.00747 -17.99731,6.98278 -36.47468,12.40074 -54.74533,18.48115 -15.64146,5.6395 -31.40419,10.99872 -47.30418,15.80469 -15.38831,4.259 -30.51183,9.41266 -45.79736,14.04218 -12.42103,4.54116 -24.58234,9.84421 -37.00042,14.37446 -7.73785,3.30963 -15.33942,7.06975 -22.6582,11.29038 1.89048,-1.495 -7.94013,4.36127 -5.99317,3.19835 85.43627,-51.03152 -1.05066,0.72789 -5.73566,3.60635 -11.07988,6.80746 22.28474,-13.3936 33.46604,-20.01995 0.99187,-0.58779 -1.92994,1.26843 -2.89492,1.90264 -5.98322,4.35135 -11.48359,9.3603 -17.22424,14.04676 -16.17671,14.4067 -34.78224,23.73268 -53.4195,34.96713 -3.81997,2.18276 -1.87673,1.18491 -5.82737,2.99852 0,0 33.22767,-27.52517 33.22767,-27.52517 l 0,0 c 3.75457,-2.06691 1.87129,-1.00078 5.64848,-3.20105 -63.83068,38.6633 -31.84314,20.84694 -19.00974,9.16164 5.69696,-4.78931 11.50257,-9.40315 17.06297,-14.36506 15.37429,-11.3983 -1.73241,1.14675 41.9953,-25.71832 11.08777,-6.81203 -44.60198,26.8031 -33.44739,20.10969 13.09417,-7.85725 26.14859,-15.78602 39.26609,-23.60125 1.9388,-1.15511 4.04443,-1.98938 5.97335,-3.16461 7.44357,-3.87989 14.91599,-7.76146 22.79258,-10.62301 12.24548,-4.7398 24.44863,-9.61298 36.85132,-13.89942 15.28524,-4.5971 30.39356,-9.79147 45.77374,-14.05197 15.77763,-4.94264 31.4573,-10.23188 47.07159,-15.70384 18.30514,-5.82716 36.56887,-11.76003 54.57757,-18.53697 18.19761,-6.69875 36.18397,-14.01575 54.61793,-20.00795 8.65491,-3.0944 17.28679,-6.18357 25.67504,-10.00996 13.50427,-6.16013 42.26126,-23.86554 -16.11474,10.89685 9.35248,-5.67564 18.18285,-12.12326 26.83073,-18.89394 21.75934,-15.57197 44.78334,-29.19167 68.30815,-41.67754 11.22539,-6.05532 22.12932,-12.70953 33.1782,-19.10115 -61.7236,37.10469 -20.00462,13.043 -6.84023,2.26543 6.64508,-5.83496 13.33918,-11.57748 19.61891,-17.84413 6.61889,-5.97481 13.54764,-11.56308 19.91359,-17.83435 6.89177,-6.19864 14.18693,-11.85206 21.18531,-17.90674 7.0316,-6.31475 13.49927,-13.16245 19.22925,-20.79383 7.26438,-9.43852 14.35514,-19.03787 21.18376,-28.81818 6.65714,-9.2466 13.00221,-18.71963 18.40291,-28.82846 7.04026,-13.42157 13.51657,-27.13805 19.39734,-41.15342 7.62445,-18.39729 14.07572,-37.20648 19.1749,-56.54283 6.57345,-24.04363 13.14424,-48.24503 16.38955,-73.05614 2.92892,-25.70604 3.01866,-51.49054 2.66025,-77.35347 -0.0653,-21.35693 -0.0117,-42.72342 -0.72919,-64.07001 0,0 37.89063,-20.04307 37.89063,-20.04307 z"
       inkscape:connector-curvature="0" />
    <path
       style="fill:#000000;fill-opacity:1;fill-rule:nonzero;stroke:none"
       id="path3007"
       d="m 812.53407,192.86018 c -8.3923,-0.85529 -16.78682,-1.23788 -25.12706,-2.4416 -5.98269,-0.50084 -11.68748,-2.14608 -17.58725,-3.05105 -5.03741,-1.372 -10.16982,-2.31059 -15.23975,-3.56771 -5.21645,-1.25559 -10.62722,-1.43356 -15.99846,-1.58951 -9.36562,-0.14614 -18.70926,-0.49905 -28.02698,0.42082 -15.99935,2.25033 -31.57295,6.30348 -47.11171,10.25473 -18.1124,5.14913 -35.8141,11.44865 -53.34372,17.97213 -17.73437,6.61777 -35.92133,12.22118 -54.25284,17.40158 -16.99269,5.54691 -34.13668,10.6917 -51.39663,15.55224 -16.48891,4.44565 -33.24941,8.00259 -49.72438,12.52003 -7.05166,1.44712 1.62807,4.07657 -4.81633,6.87745 l 13.97792,-20.42276 0,0 c 6.41463,-2.54383 13.01486,-4.60514 19.83045,-6.17433 16.45818,-4.3054 33.15325,-7.85513 49.51347,-12.43856 17.23789,-4.89212 34.30316,-10.20581 51.36764,-15.54434 18.22349,-5.25779 36.31792,-10.87647 53.95386,-17.53102 17.68459,-6.44726 35.4433,-12.91097 53.77645,-17.7952 15.74936,-3.95366 31.54729,-8.06654 47.82152,-9.97604 9.58012,-0.64859 19.19418,-0.57966 28.79808,-0.35718 5.58376,0.27374 11.16588,0.70245 16.53658,2.17754 4.98832,1.22214 10.05946,2.17077 15.06075,3.35031 5.77729,1.08468 11.48702,2.43779 17.36929,3.05248 8.36188,1.14592 16.81379,1.49168 25.22886,2.24077 z"
       inkscape:connector-curvature="0"
       sodipodi:nodetypes="cccccccccccccccccccccccccc" />
    <path
       style="fill:#000000;fill-opacity:1;fill-rule:nonzero;stroke:none"
       id="path3011"
       d="m 451.76665,248.99124 c 15.66448,-1.54079 -51.4066,22.10005 -60.89558,28.14675 -9.42608,5.69323 -18.32862,12.09506 -26.77389,19.0584 -6.74279,6.12178 -13.81832,11.87489 -20.83331,17.7011 -6.56418,5.04645 -12.05516,11.11105 -17.52204,17.20175 -5.81281,6.19125 -11.56837,12.4124 -17.12488,18.81906 -6.03492,7.40923 -12.18592,14.73202 -18.17821,22.17377 -5.43008,6.94886 -11.62209,13.28663 -17.26467,20.06684 -5.16965,6.17136 -8.70715,13.31361 -11.87052,20.57818 -3.67101,9.60728 -7.30894,19.15155 -12.08405,28.31023 -7.51584,12.37648 -13.77909,25.37869 -19.55516,38.57561 -5.39381,14.86364 -10.36694,29.85734 -15.69969,44.74402 -3.4532,10.42239 -8.51305,20.21596 -13.29388,30.10374 -4.19333,8.93954 -9.76461,17.16733 -14.04654,26.06755 -4.88731,12.3636 -7.49956,25.38849 -10.23477,38.30745 -2.91768,16.4049 -5.69986,32.7982 -9.5448,49.03369 -3.72217,15.46869 -7.82909,30.84523 -10.89942,46.45149 -4.47387,14.78662 -6.86639,29.88757 -8.25061,45.19657 -1.16428,15.09826 -1.14043,30.24423 -1.13246,45.37383 0.0426,10.99686 -0.34377,21.99684 0.95033,32.93845 0.67505,6.73499 1.88652,13.34685 3.36817,19.95083 1.33058,5.84597 1.73649,11.81897 1.97217,17.78233 0.13029,5.77033 -0.0799,11.50532 0.82613,17.22257 0.6711,3.89562 0.34759,1.94016 0.97006,5.86643 l -39.76722,20.22516 0,0 c -0.57425,-3.86224 -0.26247,-1.92639 -0.93654,-5.80736 -1.0682,-5.89268 -1.22371,-11.73577 -1.10517,-17.71835 -0.15675,-5.73078 -0.40872,-11.48125 -1.58155,-17.11895 -1.45355,-6.77506 -2.90096,-13.49508 -3.36617,-20.42451 -1.27644,-11.15232 -0.8873,-22.32166 -0.8774,-33.52958 0.11473,-15.27264 0.35406,-30.55366 1.24776,-45.80475 1.23585,-15.38112 3.00298,-30.74898 7.86169,-45.5246 3.18476,-15.70136 7.14093,-31.22466 11.14047,-46.74729 3.99059,-16.1297 6.57486,-32.46241 9.35378,-48.81124 2.7559,-13.08009 5.1052,-26.26931 9.5571,-38.95121 3.70633,-9.15596 9.28522,-17.31724 13.85085,-26.0663 4.46951,-10.03431 10.37,-19.47912 13.85049,-29.93581 5.36255,-14.98153 10.87684,-29.89544 15.76134,-45.03435 5.46282,-13.27483 11.51038,-26.41959 19.02897,-38.74356 4.86771,-8.97148 8.74619,-18.26877 12.08237,-27.86516 2.97797,-7.58149 6.27132,-15.07772 11.22764,-21.6771 5.60049,-6.86969 11.73398,-13.2692 17.41662,-20.07771 5.9997,-7.45329 12.19421,-14.751 18.06133,-22.30388 5.56905,-6.37604 10.98167,-12.85404 17.00263,-18.84974 5.56137,-6.14587 10.7484,-12.64284 17.37443,-17.79601 6.97033,-5.89163 14.2563,-11.42793 20.8666,-17.70334 8.40532,-7.22143 17.24638,-13.947 26.80604,-19.71588 9.34687,-5.80254 18.80415,-11.63 27.17226,-18.70817 z"
       inkscape:connector-curvature="0"
       sodipodi:nodetypes="cccccccccccccccccccccccccccccccccccccccccccccccccc" />
    <path
       style="fill:#000000;fill-opacity:1;fill-rule:nonzero;stroke:none"
       id="path3025"
       d="m 119.33133,912.89103 c 6.14514,-7.05193 11.65111,-14.61926 17.62005,-21.81889 5.46932,-6.50791 11.38196,-12.62022 17.3298,-18.68687 7.20819,-7.60093 16.38308,-12.69456 25.02934,-18.4196 7.33039,-5.15317 14.61057,-10.37328 21.99049,-15.45555 0,0 39.096,-15.40039 39.096,-15.40039 l 0,0 c -7.34019,5.22566 -14.89874,10.14034 -22.09323,15.57736 -8.42317,5.77165 -17.56061,10.52076 -25.05996,17.52785 -5.9708,6.01749 -11.93786,12.04785 -17.53349,18.42032 -6.04419,7.02084 -11.59263,14.41266 -17.33832,21.66835 0,0 -39.04068,16.58742 -39.04068,16.58742 z"
       inkscape:connector-curvature="0" />
    <path
       style="fill:#000000;fill-opacity:1;fill-rule:nonzero;stroke:none"
       id="path3027"
       d="m 147.7161,924.31642 c 5.89141,-9.49966 13.85359,-17.33591 22.17111,-24.68796 7.14387,-5.94744 13.93952,-12.30259 21.19193,-18.1178 15.01367,-11.16648 1.88082,-1.57274 42.01218,-24.8109 0,0 -32.92872,26.55846 -32.92872,26.55846 l 0,0 c 34.2353,-19.99142 44.02815,-26.19983 30.09919,-17.4367 -7.41745,5.73533 -14.35629,12.00035 -21.52703,18.04318 -8.2141,6.95535 -16.27193,14.15579 -22.28818,23.18713 0,0 -38.73048,17.26459 -38.73048,17.26459 z"
       inkscape:connector-curvature="0" />
    <path
       style="fill:#d45500"
       d="m 201.80238,861.6055 c 5.13136,-10.12623 11.73114,-16.89086 25.76242,-26.40586 20.89766,-14.17128 24.40436,-19.51485 8.42509,-12.83828 -5.74128,2.39886 -11.05524,3.745 -11.80881,2.99143 -0.75356,-0.75357 2.65814,-5.95803 7.58155,-11.56549 4.92341,-5.60746 8.95166,-11.50506 8.95166,-13.10577 0,-5.7666 15.92511,-23.08626 25.71428,-27.96606 14.06993,-7.01371 24.03339,-12.87743 25.76573,-15.16368 0.81401,-1.07429 12.38544,-9.00055 25.71429,-17.61389 13.32885,-8.61331 29.70703,-20.44497 36.39596,-26.29257 6.68893,-5.84757 20.28232,-14.71769 30.20754,-19.71134 9.92521,-4.99366 22.45245,-12.40795 27.83831,-16.47617 9.94533,-7.51229 45.17706,-25.09563 50.28404,-25.09563 4.41227,0 34.75099,-24.42527 56.65128,-45.60914 41.63511,-40.2731 77.44702,-72.23623 85.71428,-76.50238 4.71429,-2.43271 15.97272,-10.34567 25.01874,-17.58436 9.046,-7.2387 29.25315,-23.44698 44.90475,-36.01841 39.83994,-31.99962 56.27791,-44.28571 59.25143,-44.28571 3.06017,0 19.67122,-17.16162 21.1886,-21.8909 0.58577,-1.82571 12.59054,-12.11142 26.67725,-22.85714 14.08669,-10.74572 28.69232,-24.03768 32.45695,-29.53768 l 6.84474,-10 -1.506,10 c -2.0752,13.77939 -14.85529,60.4761 -18.41454,67.28429 -1.6024,3.06507 -5.88678,12.64428 -9.52083,21.28714 -3.63409,8.64286 -8.69806,18.28572 -11.25329,21.42857 -7.954,9.78321 -24.56671,36.46119 -32.47003,52.14286 -4.15785,8.25 -8.5466,15 -9.75274,15 -1.20614,0 -4.58743,4.17857 -7.51394,9.28571 -2.92655,5.10715 -21.20375,24.91361 -40.61603,44.01436 C 670.88277,607.62015 655,624.67476 655,626.41854 c 0,1.74377 -4.01643,5.61303 -8.9254,8.59836 -4.90897,2.98532 -11.01611,8.55412 -13.57143,12.37506 -7.86091,11.75446 -43.6874,41.76228 -52.05414,43.59991 -4.35123,0.95569 -9.40097,3.53252 -11.22163,5.72629 -3.54663,4.27346 -37.03714,21.35831 -41.86751,21.35831 -1.59655,0 -5.22992,2.57143 -8.07417,5.71429 -2.84426,3.14286 -6.69523,5.71428 -8.55775,5.71428 -6.45217,0 -53.3535,16.6926 -58.10129,20.67878 -2.62325,2.20242 -12.48382,6.35868 -21.91239,9.23614 -40.0402,12.21957 -50.99092,16.30977 -65.32489,24.39934 -8.32543,4.6986 -16.98091,8.54289 -19.23438,8.54289 -5.20006,0 -38.89845,16.3488 -41.12534,19.95197 -0.91839,1.486 -14.32241,9.86577 -29.78671,18.62171 -15.46431,8.75597 -30.37426,18.41429 -33.13322,21.46292 -2.75897,3.0486 -6.11832,4.86185 -7.46523,4.02943 -1.34691,-0.83246 -10.24396,3.055 -19.77122,8.6388 -9.52727,5.58377 -17.91794,10.15231 -18.64593,10.15231 -0.728,0 1.78076,-6.12623 5.57501,-13.61383 z"
       id="path3029"
       inkscape:connector-curvature="0" />
    <path
       style="fill:#d45500"
       d="m 276.42857,835.42819 c 11,-6.43103 21.41481,-12.6446 23.14403,-13.80795 22.15139,-14.90268 29.86198,-19.17148 42.45415,-23.50382 8.1269,-2.79606 22.40624,-8.9688 31.73186,-13.71718 9.32562,-4.7484 21.45568,-9.90025 26.95568,-11.4486 26.21429,-7.37977 50.41491,-16.0212 54.34563,-19.4054 2.3901,-2.0578 17.17581,-7.82902 32.85714,-12.82494 15.68133,-4.99591 30.44008,-10.69974 32.79723,-12.67517 2.35714,-1.97546 13.92857,-8.32591 25.71428,-14.1122 11.78572,-5.78626 27.5154,-13.77626 34.95489,-17.75554 14.84771,-7.94192 46.64028,-35.00449 53.97686,-45.94634 2.55531,-3.81103 8.70562,-9.39794 13.66737,-12.41536 4.96174,-3.01741 9.86428,-7.6829 10.89457,-10.36774 1.03026,-2.68484 15.24871,-17.78463 31.59651,-33.55507 16.34783,-15.77046 33.7144,-34.45926 38.5924,-41.53069 4.878,-7.07143 10.403,-14.14286 12.27777,-15.71429 1.87475,-1.57143 7.54566,-10.57143 12.602,-20 10.3652,-19.32806 21.6618,-37.22986 28.84715,-45.71428 2.66163,-3.14286 7.719,-12.78572 11.23857,-21.42858 3.51957,-8.64285 8.79928,-20.94164 11.73271,-27.33064 2.93343,-6.38899 5.43132,-14.74614 5.55086,-18.57143 0.11954,-3.82529 1.95031,-11.45507 4.06834,-16.95507 l 3.85097,-10 0.15543,11.42857 c 0.0854,6.28572 -2.38714,22.93058 -5.49483,36.98859 -16.60048,75.09394 -40.15562,127.41177 -82.14437,182.44917 -17.55863,23.01522 -89.29905,83.6597 -115.29728,97.46447 -11.58852,6.15337 -34.23409,19.3964 -50.32352,29.42897 -32.25844,20.11483 -67.42774,33.6914 -175.03211,67.56849 -33.78572,10.63677 -75.57143,24.46951 -92.85714,30.73943 -43.52275,15.78668 -45.65206,16.0394 -22.85715,2.7126 z"
       id="path3031"
       inkscape:connector-curvature="0" />
    <path
       style="fill:#ff8b2e;fill-opacity:1"
       d="m 198.23966,817.52634 c 7.31953,-33.74173 29.92542,-103.07594 39.45246,-121.00406 2.05691,-3.87072 8.17607,-19.86442 13.59814,-35.54152 5.42205,-15.67709 13.113,-33.11336 17.09098,-38.74726 3.97798,-5.63389 7.2327,-12.9035 7.2327,-16.15466 0,-3.25118 1.29223,-6.69509 2.87162,-7.65313 1.57939,-0.95803 6.03917,-7.87693 9.91061,-15.37534 3.87144,-7.4984 8.13189,-13.63344 9.46766,-13.63344 1.33578,0 3.97406,-3.66174 5.86284,-8.1372 3.12113,-7.39549 26.12852,-27.81867 31.33866,-27.81867 1.19111,0 2.98042,-2.5195 3.97623,-5.59891 2.40694,-7.44311 28.49612,-26.64631 52.51537,-38.65446 10.64978,-5.32423 33.77684,-16.83067 51.39349,-25.56984 17.61666,-8.73918 33.61432,-17.76272 35.5504,-20.05231 1.93604,-2.2896 4.68735,-4.1629 6.11399,-4.1629 1.42665,0 9.31235,-4.9785 17.52378,-11.06335 8.2114,-6.08483 16.44439,-11.06334 18.29547,-11.06334 1.85112,0 6.25552,-1.85844 9.78759,-4.12987 3.53208,-2.27145 14.5835,-6.73898 24.55871,-9.92785 37.42894,-11.96531 65.49247,-32.25109 101.6064,-73.44643 12.98872,-14.81626 24.88394,-29.0968 26.43386,-31.73454 6.53805,-11.12679 27.40162,-40.9977 39.55368,-56.63008 7.19708,-9.25826 13.92292,-18.15216 14.94635,-19.76422 1.27333,-2.00574 9.42247,-1.29648 25.81408,2.24674 13.17433,2.84777 28.53372,5.20738 34.13195,5.24358 10.10554,0.0653 10.20161,0.17831 13.38569,15.73921 5.42678,26.52136 4.10986,77.67949 -2.54393,98.82286 -5.68788,18.07401 -6.07465,18.51989 -35.22549,40.60662 -16.21097,12.28257 -29.4745,23.99345 -29.4745,26.02418 0,3.82878 -15.53086,18.01314 -19.72308,18.01314 -3.29528,0 -46.84144,32.55292 -60.59102,45.2948 -6.19969,5.74531 -16.34463,13.65106 -22.54432,17.56833 -6.19969,3.91727 -15.07651,10.81568 -19.72627,15.32977 -4.64977,4.51413 -12.25847,9.81637 -16.90824,11.78277 -4.64977,1.96642 -20.56385,14.57545 -35.36464,28.0201 -95.32983,86.59509 -96.47981,87.5004 -127.77207,100.5882 -12.2291,5.11475 -27.24947,13.41163 -33.37859,18.43748 -6.12911,5.02588 -12.99332,9.13796 -15.25379,9.13796 -2.26047,0 -8.77545,3.11156 -14.47773,6.9146 -5.7023,3.80302 -11.41706,6.91458 -12.69948,6.91458 -1.28243,0 -7.01162,4.49302 -12.73153,9.98451 -11.88103,11.40652 -79.2097,55.63974 -90.64766,59.55315 -6.39146,2.1868 -25.42864,23.91552 -25.42864,29.02382 0,0.87752 -3.80436,6.30993 -8.45412,12.07197 -4.64977,5.76203 -8.46459,11.54197 -8.47737,12.84426 -0.0128,1.30232 -5.17348,5.11226 -11.46823,8.46659 l -11.44499,6.09877 1.92298,-8.86461 z"
       id="path3803"
       inkscape:connector-curvature="0" />
    <path
       style="fill:#ff7900;fill-opacity:1"
       d="m 260.36934,620.93362 c 7.21171,-35.42122 17.70913,-64.26148 25.84917,-71.01711 2.29169,-1.90194 5.85191,-7.594 7.91161,-12.64906 2.05969,-5.05503 7.16595,-13.96383 11.34724,-19.79731 4.18129,-5.83352 10.59802,-18.61674 14.25942,-28.40723 5.6045,-14.98628 11.6827,-23.02197 38.44194,-50.82221 17.48168,-18.16175 38.1252,-39.94544 45.8745,-48.40821 12.06571,-13.17659 54.95289,-52.4124 115.51821,-105.68313 16.38547,-14.41197 27.65431,-21.16882 40.3854,-24.21523 4.14054,-0.99078 14.42626,-6.47529 22.85714,-12.18778 30.99937,-21.00416 108.07055,-44.91593 139.82723,-43.38219 l 17.70692,0.85518 -10.13492,12.10985 c -5.5742,6.66042 -13.00506,16.94613 -16.51297,22.85714 -20.98649,35.36307 -42.17177,63.09021 -70.86637,92.74934 -29.18369,30.16468 -35.16766,34.90557 -58.70217,46.50758 -14.41323,7.10542 -27.7302,12.91895 -29.59326,12.91895 -5.55651,0 -42.78469,18.95338 -54.29757,27.64365 -15.04814,11.35878 -20.10121,14.41425 -36.83532,22.27342 -8.10552,3.80676 -15.5135,8.17728 -16.46217,9.71227 -0.94868,1.53499 -8.03937,4.88822 -15.75709,7.45164 -7.71772,2.56342 -15.71339,6.68645 -17.76816,9.1623 -2.05478,2.47585 -12.76087,8.63696 -23.79132,13.69135 -20.57529,9.42805 -52.79021,33.41131 -53.0682,39.50805 -0.0856,1.87794 -6.06252,7.29674 -13.28198,12.04174 -15.25952,10.02932 -49.41948,58.12972 -49.41948,69.58718 0,2.7286 -3.36196,9.38945 -7.47103,14.80188 -6.78586,8.93829 -7.33767,9.18572 -6.01677,2.69794 l 0,0 z"
       id="path3805"
       inkscape:connector-curvature="0" />
    <path
       style="fill:#ff7967;fill-opacity:1"
       d="m 172.46319,833.07647 c 1.14546,-4.32143 2.33342,-14.92857 2.63991,-23.57143 0.69068,-19.47694 14.29863,-80.29943 21.41437,-95.71428 2.90159,-6.28572 6.75055,-20.42858 8.55325,-31.42858 1.80271,-11 5.28737,-28.35714 7.7437,-38.57142 2.45633,-10.21429 6.23544,-28.21429 8.39803,-40 2.16259,-11.78572 5.93403,-28.5 8.38098,-37.14286 2.44694,-8.64286 7.53976,-30.23275 11.31737,-47.97754 3.7776,-17.7448 8.40404,-37.03051 10.28096,-42.85715 7.42268,-23.0426 36.31128,-77.52197 52.58408,-99.16531 32.16676,-42.78282 91.48392,-96.67617 112.93844,-102.61165 l 7.14286,-1.9761 -7.14286,6.20251 c -3.92857,3.41138 -11,9.39096 -15.71428,13.28796 -6.34534,5.24528 -7.08737,6.67093 -2.85714,5.48938 26.92203,-7.51964 87.54068,-26.44944 107.63588,-33.6122 13.62832,-4.85769 26.3624,-8.30428 28.29794,-7.6591 1.94875,0.64958 -3.83857,7.48249 -12.96877,15.31184 -55.017,47.17836 -100.42109,89.98058 -144.39363,136.11917 -44.90739,47.11951 -50.82498,54.49199 -58.09988,72.38415 -4.45493,10.95665 -10.96236,23.77832 -14.46094,28.49261 -3.49858,4.71429 -8.02767,12.70737 -10.06465,17.76241 -2.03698,5.05504 -5.58781,10.75475 -7.89074,12.66602 -5.11597,4.24588 -15.77184,24.60063 -16.97667,32.42871 -0.48372,3.14286 -2.32358,10.85715 -4.08858,17.14286 -1.76499,6.28571 -4.52172,17.85714 -6.12607,25.71429 -1.60435,7.85714 -5.22967,20.07142 -8.05627,27.14285 -2.8266,7.07143 -9.61858,26.35715 -15.09328,42.85715 -12.67032,38.18665 -32.49705,91.07011 -35.7336,95.31154 -1.36815,1.79294 -5.46998,14.18846 -9.11518,27.5456 -6.36317,23.3166 -12.09118,34.28571 -17.90383,34.28571 -1.57182,0 -1.84313,-3.32345 -0.6414,-7.85714 l 0,0 z"
       id="path3807"
       inkscape:connector-curvature="0" />
    <path
       style="fill:#9a3d00;fill-opacity:1"
       d="m 163.63368,775.88154 c 0.896,-18.52036 5.71964,-49.59818 13.08213,-84.28571 19.16121,-90.27588 22.69961,-103.94905 30.52236,-117.94548 4.11267,-7.35836 11.1996,-22.5513 15.74875,-33.76207 l 8.27116,-20.38323 -1.8396,14.28571 c -1.01178,7.85714 -3.00507,16.46362 -4.42953,19.1255 -1.42447,2.66188 -5.8108,20.01902 -9.74741,38.57143 -3.93661,18.5524 -9.57843,44.01736 -12.53738,56.58878 -2.95894,12.57143 -6.80782,32.23139 -8.55306,43.68879 -1.74524,11.45741 -4.99618,23.67169 -7.22432,27.14286 -2.22814,3.47117 -6.81902,19.81121 -10.20195,36.31121 -3.38293,16.5 -8.03171,34.5 -10.33062,40 -3.9506,9.45154 -4.10201,8.39091 -2.76053,-19.33779 z"
       id="path3809"
       inkscape:connector-curvature="0" />
    <flowRoot
       xml:space="preserve"
       id="flowRoot3819"
       style="fill:black;stroke:none;stroke-opacity:1;stroke-width:1px;stroke-linejoin:miter;stroke-linecap:butt;fill-opacity:1;font-family:Sans;font-style:normal;font-weight:normal;font-size:40px;line-height:125%;letter-spacing:0px;word-spacing:0px"><flowRegion
         id="flowRegion3821"><rect
           id="rect3823"
           width="485.71429"
           height="122.85714"
           x="451.42856"
           y="822.85712" /></flowRegion><flowPara
         id="flowPara3825"></flowPara></flowRoot>  </g>
</svg>
